{
  "accessors": [
    {
      "bufferView": 2,
      "componentType": 5126,
      "count": 1724,
      "max": [
        1.4461950063705444,
        1.446194052696228,
        5.0095720291137695
      ],
      "min": [
        -1.4461950063705444,
        -1.4461950063705444,
        0.027847999706864357
      ],
      "type": "VEC3"
    },
    {
      "bufferView": 2,
      "byteOffset": 20688,
      "componentType": 5126,
      "count": 1724,
      "max": [
        1,
        1,
        1
      ],
      "min": [
        -1,
        -1,
        -1
      ],
      "type": "VEC3"
    },
    {
      "bufferView": 3,
      "componentType": 5126,
      "count": 1724,
      "max": [
        1,
        1,
        1,
        1
      ],
      "min": [
        -1,
        -1,
        -1,
        1
      ],
      "type": "VEC4"
    },
    {
      "bufferView": 1,
      "componentType": 5126,
      "count": 1724,
      "max": [
        0.99801498651504517,
        0.75530099868774414
      ],
      "min": [
        0.0019849999807775021,
        0.0019849999807775021
      ],
      "type": "VEC2"
    },
    {
      "bufferView": 0,
      "componentType": 5125,
      "count": 6804,
      "max": [
        1723
      ],
      "min": [
        0
      ],
      "type": "SCALAR"
    }
  ],
  "asset": {
    "extras": {
      "author": "Padmadev (https://sketchfab.com/Padmadev)",
      "license": "CC-BY-4.0 (http://creativecommons.org/licenses/by/4.0/)",
      "source": "https://sketchfab.com/3d-models/wooden-pedestal-0c0c075b21f340b79a98d6b3a5bc87b0",
      "title": "Wooden Pedestal"
    },
    "generator": "Sketchfab-9.35.0",
    "version": "2.0"
  },
  "bufferViews": [
    {
      "buffer": 0,
      "byteLength": 27216,
      "byteOffset": 0,
      "name": "floatBufferViews",
      "target": 34963
    },
    {
      "buffer": 0,
      "byteLength": 13792,
      "byteOffset": 27216,
      "byteStride": 8,
      "name": "floatBufferViews",
      "target": 34962
    },
    {
      "buffer": 0,
      "byteLength": 41376,
      "byteOffset": 41008,
      "byteStride": 12,
      "name": "floatBufferViews",
      "target": 34962
    },
    {
      "buffer": 0,
      "byteLength": 27584,
      "byteOffset": 82384,
      "byteStride": 16,
      "name": "floatBufferViews",
      "target": 34962
    }
  ],
  "buffers": [
    {
      "byteLength": 109968,
      "uri": "scene.bin"
    }
  ],
  "images": [
    {
      "uri": "textures/Wooden_pedestal_baseColor.png"
    },
    {
      "uri": "textures/Wooden_pedestal_metallicRoughness.png"
    },
    {
      "uri": "textures/Wooden_pedestal_normal.png"
    }
  ],
  "materials": [
    {
      "doubleSided": true,
      "name": "Wooden_pedestal",
      "normalTexture": {
        "index": 2,
        "scale": 1,
        "texCoord": 0
      },
      "pbrMetallicRoughness": {
        "baseColorFactor": [
          1,
          1,
          1,
          1
        ],
        "baseColorTexture": {
          "index": 0,
          "texCoord": 0
        },
        "metallicFactor": 0,
        "metallicRoughnessTexture": {
          "index": 1,
          "texCoord": 0
        },
        "roughnessFactor": 0.5
      }
    }
  ],
  "meshes": [
    {
      "primitives": [
        {
          "attributes": {
            "NORMAL": 1,
            "POSITION": 0,
            "TANGENT": 2,
            "TEXCOORD_0": 3
          },
          "indices": 4,
          "material": 0,
          "mode": 4
        }
      ]
    }
  ],
  "nodes": [
    {
      "children": [
        1
      ],
      "name": "RootNode (gltf orientation matrix)",
      "rotation": [
        -0.70710678118654746,
        -0,
        -0,
        0.70710678118654757
      ]
    },
    {
      "children": [
        2
      ],
      "matrix": [
        0.1578747034072876,
        0,
        0,
        0,
        0,
        0.1578747034072876,
        0,
        0,
        0,
        0,
        0.1578747034072876,
        0,
        0,
        0,
        0,
        1
      ],
      "name": "RootNode (model correction matrix)"
    },
    {
      "children": [
        3
      ],
      "name": "109f09f5216f41e1b0c23f187c1fbd75.obj.cleaner.materialmerger.gles"
    },
    {
      "mesh": 0,
      "name": ""
    }
  ],
  "samplers": [
    {
      "magFilter": 9729,
      "minFilter": 9987,
      "wrapS": 10497,
      "wrapT": 10497
    }
  ],
  "scene": 0,
  "scenes": [
    {
      "name": "OSG_Scene",
      "nodes": [
        0
      ]
    }
  ],
  "textures": [
    {
      "sampler": 0,
      "source": 0
    },
    {
      "sampler": 0,
      "source": 1
    },
    {
      "sampler": 0,
      "source": 2
    }
  ]
}

